<svg width="12" height="19" viewBox="0 0 12 19" fill="none" xmlns="http://www.w3.org/2000/svg">
<g id="&#240;&#159;&#166;&#134; emoji &#34;shortcake&#34;">
<g id="drink">
<g id="&#240;&#159;&#166;&#134; icon &#34;Drink Wine&#34;">
<path id="Vector" d="M1.47901 0.243896C1.12008 0.243896 0.829102 0.534874 0.829102 0.893807V7.39291C0.829102 10.0447 2.81436 12.2328 5.3797 12.5522C5.37889 12.5654 5.37848 12.5787 5.37848 12.5922V17.1416H3.42874C3.06981 17.1416 2.77883 17.4326 2.77883 17.7915C2.77883 18.1504 3.06981 18.4414 3.42874 18.4414H8.62803C8.98691 18.4414 9.27794 18.1504 9.27794 17.7915C9.27794 17.4326 8.98691 17.1416 8.62803 17.1416H6.6783V12.5922C6.6783 12.5787 6.67788 12.5654 6.67707 12.5522C9.24245 12.2328 11.2277 10.0447 11.2277 7.39291V0.893807C11.2277 0.534874 10.9366 0.243896 10.5778 0.243896H1.47901ZM2.12892 4.14336V1.54372H9.92785V4.14336H2.12892ZM9.58106 7.13707C9.49787 7.88734 9.17928 8.59199 8.67092 9.15004C8.16263 9.70809 7.49068 10.0909 6.75142 10.2436C6.39991 10.3162 6.0561 10.0901 5.98349 9.73857C5.91088 9.38706 6.13699 9.04324 6.48851 8.97064C6.95894 8.87348 7.38654 8.62986 7.71002 8.27474C8.0335 7.91961 8.23625 7.4712 8.28922 6.99376C8.32878 6.63702 8.65013 6.3799 9.0068 6.41948C9.3636 6.45904 9.6207 6.78033 9.58106 7.13707Z" fill="#FCC436"/>
</g>
</g>
</g>
</svg>
