<svg width="21" height="19" viewBox="0 0 21 19" fill="none" xmlns="http://www.w3.org/2000/svg">
<g id="&#240;&#159;&#166;&#134; emoji &#34;shortcake&#34;">
<g id="Group">
<path id="Vector" d="M19.6742 7.52985V16.731C19.6742 17.0591 19.4084 17.3246 19.0805 17.3246H1.86547C1.53765 17.3246 1.27185 17.0591 1.27185 16.731V7.52985C1.27185 7.20232 1.53765 6.93623 1.86547 6.93623L11.9559 5.32202" stroke="#FCC436" stroke-width="1.98" stroke-miterlimit="10" stroke-linecap="round" stroke-linejoin="round"/>
<path id="Vector_2" d="M17.0084 4.57703C18.5054 4.72846 19.6741 5.99311 19.6741 7.52991" stroke="#FCC436" stroke-width="1.98" stroke-miterlimit="10" stroke-linecap="round" stroke-linejoin="round"/>
<path id="Vector_3" d="M1.27186 7.26996L1.56867 11.0915C2.38838 11.0915 3.05273 10.4272 3.05273 9.60779C3.05273 8.78808 3.71708 8.12343 4.53679 8.12343C5.35649 8.12343 6.02084 8.78808 6.02084 9.60779C6.02084 10.4272 6.6852 11.0915 7.5049 11.0915C8.32461 11.0915 8.98896 10.4272 8.98896 9.60779C8.98896 8.78808 9.65331 8.12343 10.473 8.12343C11.2927 8.12343 11.9571 8.78808 11.9571 9.60779C11.9571 10.4272 12.6214 11.0915 13.4411 11.0915C14.2608 11.0915 14.9252 10.4272 14.9252 9.60779C14.9252 8.78808 15.5895 8.12343 16.4092 8.12343C17.2289 8.12343 17.8933 8.78808 17.8933 9.60779C17.8933 10.4272 18.5577 11.0915 19.3774 11.0915L19.0919 4.95996" fill="#FCC436"/>
<path id="Vector_4" d="M1.27185 13.9933H19.6742" stroke="#FCC436" stroke-width="1.98" stroke-miterlimit="10" stroke-linecap="round" stroke-linejoin="round"/>
<path id="Vector_5" d="M14.48 7.03599C15.8464 7.03599 16.954 5.92832 16.954 4.56194C16.954 3.19555 15.8464 2.08788 14.48 2.08788C13.1136 2.08788 12.0059 3.19555 12.0059 4.56194C12.0059 5.92832 13.1136 7.03599 14.48 7.03599Z" stroke="#FCC436" stroke-width="1.98" stroke-miterlimit="10" stroke-linecap="round" stroke-linejoin="round"/>
<path id="Vector_6" d="M14.4799 3.96811C14.4799 2.32885 15.8086 1 17.448 1" stroke="#FCC436" stroke-width="1.32" stroke-miterlimit="10" stroke-linecap="round" stroke-linejoin="round"/>
</g>
</g>
</svg>
